<?xml version="1.0" encoding="utf-8"?>
<!-- Generator: Adobe Illustrator 15.1.0, SVG Export Plug-In  -->
<!DOCTYPE svg PUBLIC "-//W3C//DTD SVG 1.1//EN" "http://www.w3.org/Graphics/SVG/1.1/DTD/svg11.dtd" [
	<!ENTITY ns_flows "http://ns.adobe.com/Flows/1.0/">
]>
<svg version="1.1"
	 xmlns="http://www.w3.org/2000/svg" xmlns:xlink="http://www.w3.org/1999/xlink" xmlns:a="http://ns.adobe.com/AdobeSVGViewerExtensions/3.0/"
	 x="0px" y="0px" width="743px" height="408px" viewBox="-6.814 -7.125 743 408" enable-background="new -6.814 -7.125 743 408"
	 xml:space="preserve">
<defs>
</defs>
<path fill-rule="evenodd" clip-rule="evenodd" fill="#38427A" d="M62.186,128.875c2.887,3.604-3.113,6.849-8,6
	C55.77,131.792,60.012,131.367,62.186,128.875z"/>
<path fill-rule="evenodd" clip-rule="evenodd" fill="#38427A" d="M45.186,141.875c-4.271,3.062-6.901,7.765-14,8
	C35.114,146.469,37.887,141.909,45.186,141.875z"/>
<path fill-rule="evenodd" clip-rule="evenodd" fill="#38427A" d="M25.186,156.875c-2.013,3.987-4.009,7.991-10,8
	C18.266,161.955,19.665,157.354,25.186,156.875z"/>
<path fill-rule="evenodd" clip-rule="evenodd" fill="#38427A" d="M12.186,171.875c-1.946,3.054-1.818,8.182-7,8
	C7.065,176.754,7.735,172.424,12.186,171.875z"/>
<path fill-rule="evenodd" clip-rule="evenodd" fill="#38427A" d="M4.186,187.875c0.331,3.664-1.11,5.556-2,8
	C-1.051,195.458,0.535,187.497,4.186,187.875z"/>
<path fill-rule="evenodd" clip-rule="evenodd" fill="#38427A" d="M0.186,202.875c2.736-0.003,3.894,6.683,2,8
	C-1.758,211.485,1.01,205.385,0.186,202.875z"/>
<path fill-rule="evenodd" clip-rule="evenodd" fill="#38427A" d="M3.186,218.875c4.771-0.104,4.451,4.882,6,8
	C3.924,227.471,4.549,222.179,3.186,218.875z"/>
<path fill-rule="evenodd" clip-rule="evenodd" fill="#38427A" d="M12.186,234.875c4.247,0.087,6.305,2.361,6,7
	C15.873,239.855,12.843,238.552,12.186,234.875z"/>
<path fill-rule="evenodd" clip-rule="evenodd" fill="#38427A" d="M26.186,247.875c3.121,1.879,6.96,3.039,7,8
	C30.065,253.996,26.226,252.836,26.186,247.875z"/>
<path fill-rule="evenodd" clip-rule="evenodd" fill="#38427A" d="M41.186,258.875c2.412,2.921,8.156,2.511,8,8
	C45.804,264.923,40.779,264.616,41.186,258.875z"/>
<path fill-rule="evenodd" clip-rule="evenodd" fill="#38427A" d="M57.186,268.875c2.407,2.26,8.11,1.224,7,7
	C62.249,273.146,56.546,274.182,57.186,268.875z"/>
<path fill-rule="evenodd" clip-rule="evenodd" fill="#38427A" d="M72.186,276.875c3.118,1.549,8.104,1.229,8,6
	C77.068,281.326,72.083,281.646,72.186,276.875z"/>
<path fill-rule="evenodd" clip-rule="evenodd" fill="#38427A" d="M88.186,283.875c2.658,0.676,5.092,1.574,7,3
	C94.893,291.038,87.09,287.544,88.186,283.875z"/>
<path fill-rule="evenodd" clip-rule="evenodd" fill="#38427A" d="M103.186,289.875c2.787,0.88,6.085,1.248,8,3
	C111.341,296.351,102.225,293.677,103.186,289.875z"/>
<path fill-rule="evenodd" clip-rule="evenodd" fill="#38427A" d="M126.186,297.875c0.159,4.124-6.001,0.085-7-1
	C118.657,293.121,124.817,297.161,126.186,297.875z"/>
<path fill-rule="evenodd" clip-rule="evenodd" fill="#38427A" d="M134.186,299.875c3.287,0.713,7.526,0.475,8,4
	C138.481,303.58,133.62,304.441,134.186,299.875z"/>
<path fill-rule="evenodd" clip-rule="evenodd" fill="#38427A" d="M157.186,308.875c-2.322-1.345-5.678-1.655-8-3
	C149.439,302.937,158.213,304.37,157.186,308.875z"/>
<path fill-rule="evenodd" clip-rule="evenodd" fill="#38427A" d="M165.186,307.875c3.04,0.961,8.144-0.144,8,4
	C169.92,311.141,164.586,312.475,165.186,307.875z"/>
<path fill-rule="evenodd" clip-rule="evenodd" fill="#38427A" d="M188.186,314.875c-3.664,0.33-5.556-1.11-8-2
	C180.11,310.131,188.728,311.06,188.186,314.875z"/>
<path fill-rule="evenodd" clip-rule="evenodd" fill="#38427A" d="M196.186,313.875c1.679,2.32,8.959-0.96,8,4
	C200.481,317.58,195.62,318.441,196.186,313.875z"/>
<path fill-rule="evenodd" clip-rule="evenodd" fill="#38427A" d="M211.186,316.875c3.249,0.084,6.151,0.516,8,2
	C219.787,322.145,210.294,320.34,211.186,316.875z"/>
<path fill-rule="evenodd" clip-rule="evenodd" fill="#38427A" d="M304.186,316.875c8.762,2.905,16.348,6.985,25,10
	c-7.962,3.704-16.042,7.292-25,10c0.891-3.109,3.341-4.659,4-8c-1.387-2.28-6.96-0.373-10-1c-0.142-4.142,6.958-1.042,10-2
	C307.947,321.78,304.789,320.605,304.186,316.875z"/>
<path fill-rule="evenodd" clip-rule="evenodd" fill="#38427A" d="M227.186,318.875c1.679,2.32,8.959-0.96,8,4
	C231.92,322.141,226.586,323.475,227.186,318.875z"/>
<path fill-rule="evenodd" clip-rule="evenodd" fill="#38427A" d="M242.186,321.875c2.391,0.609,7.255-1.255,8,1
	C250.668,326.482,242.086,324.295,242.186,321.875z"/>
<path fill-rule="evenodd" clip-rule="evenodd" fill="#38427A" d="M258.186,322.875c2.395,0.604,4.563,1.438,8,1
	C267.055,327.096,255.97,327.41,258.186,322.875z"/>
<path fill-rule="evenodd" clip-rule="evenodd" fill="#38427A" d="M273.186,324.875c2.391,0.609,7.255-1.255,8,1
	C281.398,329.752,272.227,328.153,273.186,324.875z"/>
<path fill-rule="evenodd" clip-rule="evenodd" fill="#38427A" d="M690.186,145.875c7.695-1.017,15.846,6.146,25,7
	c-0.522,3.478-5.383,2.617-8,4c1.576,5.289,10.656,7.741,9,13c-5.775-1.225-6.11-7.89-11-10c-2.489,1.511-1.252,6.748-3,9
	C697.355,162.04,695.292,152.435,690.186,145.875z"/>
<path fill-rule="evenodd" clip-rule="evenodd" fill="#38427A" d="M718.186,171.875c3.818,0.848,4.813,4.521,6,8
	C719.993,179.654,717.198,174.103,718.186,171.875z"/>
<path fill-rule="evenodd" clip-rule="evenodd" fill="#38427A" d="M725.186,187.875c1,0,2,0,3,0c-0.708,3.708,1.708,4.292,1,8
	C725.042,196.019,726.147,190.915,725.186,187.875z"/>
<path fill-rule="evenodd" clip-rule="evenodd" fill="#38427A" d="M727.186,202.875c4.655-0.793,1.898,5.788,1,8
	C723.8,210.931,728.868,206.426,727.186,202.875z"/>
<path fill-rule="evenodd" clip-rule="evenodd" fill="#38427A" d="M727.186,218.875c-2.205,2.462-1.667,7.666-6,8
	C721.948,222.97,722.285,218.641,727.186,218.875z"/>
<path fill-rule="evenodd" clip-rule="evenodd" fill="#38427A" d="M718.186,234.875c-2.555,2.112-3.138,6.196-7,7
	C711.827,237.85,712.935,234.291,718.186,234.875z"/>
<path fill-rule="evenodd" clip-rule="evenodd" fill="#38427A" d="M703.186,246.875c2.304,3.678-3.664,7.639-7,9
	C695.659,250.014,701.819,250.842,703.186,246.875z"/>
<path fill-rule="evenodd" clip-rule="evenodd" fill="#38427A" d="M688.186,259.875c-0.313,4.688-4.748,5.252-8,7
	C680.004,261.693,685.132,261.821,688.186,259.875z"/>
<path fill-rule="evenodd" clip-rule="evenodd" fill="#38427A" d="M673.186,268.875c0.385,5.051-5.23,4.103-7,7
	C663.287,272.258,670.075,269.802,673.186,268.875z"/>
<path fill-rule="evenodd" clip-rule="evenodd" fill="#38427A" d="M656.186,276.875c1.172,0.161,0.844,1.823,1,3
	c-2.79,0.877-4.939,2.394-8,3C649.652,279.008,653.663,278.686,656.186,276.875z"/>
<path fill-rule="evenodd" clip-rule="evenodd" fill="#38427A" d="M642.186,283.875c0.117,4.45-4.64,4.027-8,5
	C634.342,284.698,639.098,285.121,642.186,283.875z"/>
<path fill-rule="evenodd" clip-rule="evenodd" fill="#38427A" d="M626.186,289.875c0.675,4.675-4.283,3.717-7,5
	C618.511,290.2,623.469,291.158,626.186,289.875z"/>
<path fill-rule="evenodd" clip-rule="evenodd" fill="#38427A" d="M611.186,294.875c0.79,5.123-5.203,3.464-8,5
	C602.691,295.046,608.477,296.499,611.186,294.875z"/>
<path fill-rule="evenodd" clip-rule="evenodd" fill="#38427A" d="M595.186,299.875c0.641,4.308-3.703,3.63-7,4
	C587.714,299.736,592.863,301.219,595.186,299.875z"/>
<path fill-rule="evenodd" clip-rule="evenodd" fill="#38427A" d="M580.186,303.875c1.199,5.199-5.583,2.417-7,5
	C569.528,305.15,577.637,304.709,580.186,303.875z"/>
<path fill-rule="evenodd" clip-rule="evenodd" fill="#38427A" d="M564.186,308.875c0.232,2.645-6.181,3.713-7,2
	C556.954,308.23,563.367,307.162,564.186,308.875z"/>
<path fill-rule="evenodd" clip-rule="evenodd" fill="#38427A" d="M549.186,311.875c-0.313,3.354-4.531,2.802-8,3
	C540.386,311.018,548.439,310.871,549.186,311.875z"/>
<path fill-rule="evenodd" clip-rule="evenodd" fill="#38427A" d="M533.186,314.875c0.314,2.727-5.812,4.082-7,2
	C525.368,313.645,533.734,314.529,533.186,314.875z"/>
<path fill-rule="evenodd" clip-rule="evenodd" fill="#38427A" d="M518.186,317.875c0.191,3.857-6.268,1.065-8,3
	C509.125,316.756,516.735,316.168,518.186,317.875z"/>
<path fill-rule="evenodd" clip-rule="evenodd" fill="#38427A" d="M502.186,319.875c0.232,2.645-6.181,3.713-7,2
	C494.368,318.645,502.734,319.529,502.186,319.875z"/>
<path fill-rule="evenodd" clip-rule="evenodd" fill="#38427A" d="M487.186,321.875c0.003,2.736-6.683,3.894-8,2
	C478.576,319.931,484.676,322.698,487.186,321.875z"/>
<path fill-rule="evenodd" clip-rule="evenodd" fill="#38427A" d="M471.186,323.875c0.818,3.23-7.548,2.346-7,2
	C463.762,323.039,470.979,322.774,471.186,323.875z"/>
<path fill-rule="evenodd" clip-rule="evenodd" fill="#38427A" d="M456.186,324.875c0.056,3.723-4.449,2.884-8,3
	C447.518,323.54,452.828,325.183,456.186,324.875z"/>
<path fill-rule="evenodd" clip-rule="evenodd" fill="#38427A" d="M50.186,51.875c-17.543-1.148-13.878-19.748-11-27
	c5.666-14.277,39.787-37,54-17c8.973,12.626-1.836,36.261-6,52c-3.756,14.196-9.753,45.138,6,49c11.584,2.84,22.611-7.428,28-14
	c8.652-10.552,16.855-28.155,22-48c4.376-16.879,14.513-60.59,32-40c-15.12,26.547-22.691,60.642-31,94
	c11.695-0.707,24.939-5.082,39-5c38.456,0.225,57,25.258,57,62c0,58.449-48.074,114.488-101,119c-13.367,1.14-23.114-0.576-30-9
	c8.065-42.244,21.826-84.559,36-124c3.914-10.891,7.408-29.633,24-27c-5.863,24.152-16.996,47.698-25,73
	c-8.04,25.415-15.109,51.707-21,79c55.854,7.237,95.999-52.062,100-104c1.248-16.192-0.098-29.137-6-41
	c-11.647-23.411-53.268-29.439-76-10c-4.005,20.163-12.992,48.388-28,62c-12.552,11.384-38.049,18.446-39-7
	c-1.253-33.533,33.437-49.823,56-61c0.559-8.441,3.089-14.911,4-23c0.19-0.81,1.003-0.997,1-2c-10.973,15.255-24.348,37.953-50,34
	c-22.246-3.428-16.391-37.197-10-60c3.798-13.55,16.697-49.304-3-51C53.802,4.292,46.642,31.768,50.186,51.875z M89.186,178.875
	c24.761-6.573,31.75-36.249,37-59C107.702,130.087,75.854,151.019,89.186,178.875z"/>
<path fill-rule="evenodd" clip-rule="evenodd" fill="#38427A" d="M399.186,2.875c7.204,15.624-2.13,34.182-9,45
	c2.29,2.478,7.264,3.813,11,2c5.905-11.761,6.494-28.84,17-36c10.805,7.999-20.156,39.285-3,54c17.45-8.55,20.63-31.37,31-47
	c2.928-0.261,3.072,2.261,6,2c-0.194,14.362-16.524,30.113-10,48c18.366-0.967,22.216-16.451,30-28c4.88,18.695-45.008,56.754-39,13
	c-6.734,3.303-9.727,20.902-22,19c-7.701-1.193-8.474-10.033-10-20c-2.262-0.973-10.217,1.057-13-2c-5.5,10.289-28.67,30.748-35,8
	c-17.829,5.235-18.908,19.885-28,37c-4.58,8.622-22.359,29.435-28,12c-7.121-22.008,24.264-28.232,31-37
	c3.804-4.952,1.608-10.664,5-16c-4.403,10.967-28.593,27.003-32,4c-1.668-11.261,8.31-42.317,15-43c11.337-1.157,0.663,17.081-1,22
	c-2.168,6.413-7.931,21.508,0,26c9.751-2.638,16.937-9.264,21-19c4.646-11.131,0.408-30.733,15-33c0.321,17.36-7.851,34.787-12,51
	c22.173-0.8,8.115-43.173,34-45c-4.448,10.99-17.241,31.213-7,44c10.362,0.029,11.997-8.669,18-13
	C371.849,38.283,372.456-7.722,399.186,2.875z M388.186,44.875c3.993-10.01,14.155-26.438,6-39
	C379.383,7.7,379.527,36.404,388.186,44.875z M303.186,109.875c14.769-2.898,16.47-18.863,22-31c1.052-0.055,0.787-1.282-1-1
	C314.955,85.755,297.939,90.811,303.186,109.875z"/>
<path fill-rule="evenodd" clip-rule="evenodd" fill="#38427A" d="M238.186,15.875c-0.291,17.5,14.116,28.398,14,49
	c9.15-2.184,12.229-10.438,16-18c5.558,9.288-11.16,15.102-16,20c-3.55,3.594-3.32,9.431-7,12c-10.344,7.221-29.905,3.464-30-10
	c-8.728,8.139-21.563,23.613-38,19c-25.65-7.199-1.684-69.987,28-60c8.965,20.77-11.666,34.851-29,39c0.915,33.21,38.408,8.28,39-9
	c7.731-7.936,13.852-17.481,18-29c-1.425-4.659-1.623-10.783,2-13C236.186,15.875,237.186,15.875,238.186,15.875z M177.186,64.875
	c10.049-8.381,26.992-14.877,23-34C184.694,33.72,177.94,50.625,177.186,64.875z M223.186,53.875c3.805,6.861,9.287,12.046,20,12
	c-0.984-12.683-4.005-23.328-10-31C230.76,42.115,226.953,47.975,223.186,53.875z M242.186,68.875c-8.811-1.189-14.351-5.649-20-10
	C211.853,71.637,239.846,86.379,242.186,68.875z"/>
<path fill-rule="evenodd" clip-rule="evenodd" fill="#38427A" d="M542.186,19.875c4.808,9.249-0.271,27.328-12,23
	c-0.631-5.82,9.36-9.167,9-18c-14.177-11.835-51.07,31.782-39,48c4.156,5.584,17.876,5.231,25,1c6.5-16.262,29.65-47.769,55-45
	c8.515,0.93,23.11,18.901,4,24c3.094-5.939,4.58-15.849-2-19c-26.425,4.646-42.569,24.667-46,49c11.633,2.771,19.063-6.336,26-12
	c7.2-5.88,13.434-14.2,22-15c4.612,12.901-20.365,17.113-14,35c14.703,3.423,20.805-11.559,27-23c3.783-6.987,5.651-19.267,16-16
	c3.222,10.68-6.052,17.19-9,25c5.395-5.654,40.256-34.404,46-12c4.844,18.893-16.29,26.686-16,42c0.318,2.348,3.095,2.238,4,4
	c14.874-1.793,18.951-14.382,29-21c-0.458,12.742-36.783,36.582-42,17c-2.904-10.903,26.093-39.695,6-42
	c-16.966-1.946-32.98,28.72-44,34c-6.514-7.2-23.693,2.986-28-9c-0.348-5.348,0.439-9.56,2-13c-7.274,7.307-33.204,24.036-36,1
	c-11.774,6.952-32.362,7.244-36-6C482.38,47.099,515.69,6.773,542.186,19.875z"/>
<path fill-rule="evenodd" clip-rule="evenodd" fill="#38427A" d="M261.186,68.875c1.667,0,3.333,0,5,0c3.917,6.85-0.102,17.896-6,21
	C257.797,84.129,262.874,77.247,261.186,68.875z"/>
<path fill-rule="evenodd" clip-rule="evenodd" fill="#38427A" d="M331.186,155.875c-1.689-8.479-0.058-19.567-8-22
	c-16.546-5.068-33.895,17.684-41,29c-2.021,3.219-25.168,44.744-9,50c9.593,3.119,27.48-17.916,31-22
	c9.725-11.284,13.724-21.334,22-31c4.489,0.178,7.253,2.08,10,4c-1.276,8.228-27.732,43.302-7,47c7.661,1.367,22.918-11.743,27-19
	c7.338-13.047,7.919-27.74,10-43c3.915-2.672,9.822-6.688,16-4c5.288,11.392-3.082,24.364-5,35c9.616-8.966,36.747-55.207,61-37
	c13.087,9.825,4.787,30.247,0,45c-2.179,6.715-6.672,19.033,2,22c10.523,3.6,17.213-10.648,20-12c-3.986-33.183,31.063-76.007,64-70
	c18.159,3.312,17.22,42.314-7,34c1.216-5.97,13.934-13.881,10-25c-20.088-4.681-33.325,12.215-43,28c-5.41,8.826-13.833,26.325-8,38
	c11.457,22.933,53.831-0.783,62-13c1.629-2.436,3.035-10.295,5-14c8.689-16.381,34.873-38.739,54-41
	c24.586-2.906,29.236,17.353,17,33c-10.453,13.367-37.059,23.021-59,22c-10.318,15.237,0.547,32.328,17,33
	c27.065,1.105,44.972-26.098,58-35c-6.33,30.889-90.307,67.494-94,11c-11.414,8.118-40.387,30.544-64,18
	c-4.299-2.283-8.042-6.892-10-13c-8.548,12.698-33.632,15.89-40,6c-5.393-8.374-0.397-18.803,2-27c2.259-7.724,7.099-26.841-4-29
	c-7.635-1.485-14.663,3.749-19,7c-6.874,5.153-15.244,16.229-22,26c-5.594,8.091-18.628,40.842-31,21
	c-10.619,12.485-46.882,18.402-42-12c-9.911,9.206-29.71,39.403-49,23c-4.117-3.501-5.621-9.917-6-13
	c-3.437-27.94,33.619-74.053,62-78C334.88,124.857,353.659,146.863,331.186,155.875z M556.186,185.875
	c24.246-7.754,51.669-12.331,54-42C582.439,140.293,566.79,165.69,556.186,185.875z"/>
<path fill-rule="evenodd" clip-rule="evenodd" fill="#38427A" d="M715.186,60.875c3.556,14.372-5.569,27.847-11,40
	c-16.544,37.027-36.892,73.795-57,108c1.843-26.712,15.102-52.062,26-76c11.572-25.418,22.803-52,38-72
	C712.519,60.875,713.853,60.875,715.186,60.875z"/>
<path fill-rule="evenodd" clip-rule="evenodd" fill="#38427A" d="M651.186,224.875c1.565,11.771-13.613,18.175-20,10
	C628.966,222.583,644.807,219.522,651.186,224.875z"/>
<path fill-rule="evenodd" clip-rule="evenodd" fill="#38427A" d="M426.186,324.875c-9.594-0.406-15.984-4.016-24-6
	c5.3-10.465-0.488-22.451,0-35c0.691-17.776,17.279-45.278,29-48c10.683-2.48,15.722,8.163,17,18
	C451.956,282.888,439.627,309.92,426.186,324.875z"/>
<path fill-rule="evenodd" clip-rule="evenodd" fill="#38427A" d="M422.186,334.875c-5.337,14.455-13.767,39.133-35,28
	c-6.274-14.869,4.724-27.276,10-37C403.77,330.625,412.694,333.034,422.186,334.875z"/>
<path fill-rule="evenodd" clip-rule="evenodd" fill="#38427A" d="M374.186,349.875c-6.521,1.491-16.868,4.449-24,2
	c-14.835-15.119-22.273-81.61,3-89c13.427-3.926,27.563,29.314,28,45C381.669,325.254,370.779,334.103,374.186,349.875z"/>
<path fill-rule="evenodd" clip-rule="evenodd" fill="#38427A" d="M352.186,362.875c10.423,0.423,17.803-2.197,26-4
	c4.403,9.748,12.523,31.008,1,39C356.25,400.145,356.063,379.665,352.186,362.875z"/>
</svg>
