<svg id="dance-animation" width="1200" height="400" viewBox="0 0 1200 400" xmlns="http://www.w3.org/2000/svg">
  <defs>
    <g id="footprint">
      <path d="M 23.3,0.3 C 22.3,0.1 21.3,0 20.2,0 13.5,0 8.2,5.3 8.2,12 c 0,1.8 0.4,3.5 1.1,5.1 -3.3,1.4-5.6,4.6-5.6,8.4 0,4.9 4,8.9 8.9,8.9 0.2,0 0.3,0 0.5,0 C 13.6,38.8 17.5,45.4 23.3,48 c 5.4,2.4 11.5,1.8 16.5-1.5 5-3.3 8.2-8.6 8.2-14.5 0-6.1-3.1-11.5-7.8-14.7 1.3-1.6 2-3.6 2-5.8 0-5.2-4.2-9.4-9.4-9.4 -0.9,0-1.8,0.1-2.7,0.4 z" fill="#000"/>
    </g>
    <marker id="arrowhead" viewBox="0 0 10 10" refX="8" refY="5" markerWidth="6" markerHeight="6" orient="auto-start-reverse">
      <path d="M 0 0 L 10 5 L 0 10 z" fill="#000" />
    </marker>
  </defs>

  <g class="dance-path-1">
    <path class="trace-line" d="M 60,150 C 120,100, 180,100, 240,150" fill="none" stroke="#000" stroke-width="2" stroke-dasharray="5,5" marker-end="url(#arrowhead)"/>
    <use href="#footprint" class="step" transform="translate(40 150) rotate(-20)"/>
    <use href="#footprint" class="step" transform="translate(250 145) rotate(15) scale(-1, 1)"/>
  </g>

  <g class="dance-path-2">
    <path class="trace-line" d="M 320,250 C 370,200, 430,220, 480,240" fill="none" stroke="#000" stroke-width="2" stroke-dasharray="5,5" marker-end="url(#arrowhead)"/>
    <path class="trace-line" d="M 520,190 C 580,120, 620,140, 680,200" fill="none" stroke="#000" stroke-width="2" stroke-dasharray="5,5" marker-end="url(#arrowhead)"/>
    
    <use href="#footprint" class="step" transform="translate(310 255) rotate(-25)"/>
    <use href="#footprint" class="step" transform="translate(430 250) rotate(5) scale(-1, 1)"/>
    <use href="#footprint" class="step" transform="translate(485 200) rotate(-10)"/>
    <use href="#footprint" class="step" transform="translate(560 140) rotate(-70) scale(-1, 1)"/>
    <use href="#footprint" class="step" transform="translate(680 205) rotate(10)"/>
  </g>

  <g class="dance-path-3">
    <path class="trace-line" d="M 750,250 C 800,300, 860,280, 920,240" fill="none" stroke="#000" stroke-width="2" stroke-dasharray="5,5" marker-end="url(#arrowhead)"/>
    <path class="trace-line" d="M 920,240 C 980,180, 1050,180, 1100,220" fill="none" stroke="#000" stroke-width="2" stroke-dasharray="5,5" marker-end="url(#arrowhead)"/>
    
    <use href="#footprint" class="step" transform="translate(750 240) rotate(-5) scale(-1,1)"/>
    <use href="#footprint" class="step" transform="translate(850 280) rotate(20)"/>
    <use href="#footprint" class="step" transform="translate(930 220) rotate(-15) scale(-1,1)"/>
    <use href="#footprint" class="step" transform="translate(1020, 180) rotate(-35)"/>
    <use href="#footprint" class="step" transform="translate(1120, 220) rotate(15) scale(-1,1)"/>
  </g>
</svg>