<?xml version="1.0" encoding="UTF-8" standalone="no"?>
<!DOCTYPE svg PUBLIC "-//W3C//DTD SVG 1.1//EN" "http://www.w3.org/Graphics/SVG/1.1/DTD/svg11.dtd">
<svg width="428.25" height="485.25" viewBox="0.00 0.00 571.00 647.00" xmlns="http://www.w3.org/2000/svg" xmlns:xlink="http://www.w3.org/1999/xlink">
<g stroke-linecap="round" id="Layer_3">
<path d="M183.31,561.13 C174.83,557.90 166.95,554.49 158.81,549.94 C152.58,546.34 139.07,538.40 131.58,533.78 C124.37,529.08 110.69,519.38 104.45,514.28 C98.20,509.08 88.88,500.19 81.58,492.52 C76.38,486.79 66.37,475.00 61.74,468.81 C57.16,462.45 48.42,449.28 44.28,442.51 C40.34,435.68 33.00,421.88 29.84,414.76 C26.79,407.54 21.20,392.75 18.67,385.24 C16.35,377.70 12.27,362.62 10.76,354.97 C9.40,347.25 7.24,331.59 6.45,323.70 C5.86,315.84 5.24,300.22 5.47,292.43 C5.86,284.61 7.24,268.85 8.22,260.98 C9.40,253.19 12.27,237.83 14.23,230.28 C16.35,222.74 21.20,207.69 23.91,200.24 C26.79,192.90 33.00,178.56 36.60,171.64 C40.34,164.76 48.42,151.17 52.72,144.50 C57.16,137.99 66.41,125.40 71.45,119.45 C76.63,113.57 87.53,102.12 93.21,96.58 C98.99,91.22 110.75,81.05 116.91,76.33 C123.10,71.77 138.22,61.48 142.46,58.94 C149.24,54.91 162.99,47.99 171.65,44.34 C177.95,41.79 196.38,35.31 204.58,32.69 C223.06,26.91 233.95,24.63 236.45,24.11" fill="none" stroke="rgb(1, 0, 0)" stroke-width="10.00" stroke-opacity="1.00" stroke-linejoin="round"/>
<path d="M341.34,25.56 C347.30,26.68 359.44,30.47 366.02,32.54 C374.54,35.32 393.13,41.75 399.53,44.32 C408.37,48.03 421.96,54.63 428.59,58.43 C435.17,62.22 447.68,70.76 454.05,75.80 C459.60,80.21 471.96,91.33 479.70,98.93 C490.62,110.43 505.02,125.64 506.16,127.14" fill="none" stroke="rgb(1, 0, 0)" stroke-width="10.00" stroke-opacity="1.00" stroke-linejoin="round"/>
<path d="M542.93,190.42 C551.65,213.51 557.97,231.76 561.30,249.11 C562.65,256.78 564.54,272.64 565.21,280.58 C565.67,288.48 566.04,301.33 565.70,312.09 C565.23,319.97 563.63,335.69 562.53,343.47 C561.24,351.17 558.82,363.39 556.01,373.93 C553.79,381.47 548.74,396.50 545.94,403.89 C542.98,411.17 537.94,422.55 532.83,432.25 C528.99,439.10 520.72,452.63 516.35,459.22 C511.84,465.65 504.32,475.73 497.50,483.86 C492.44,489.62 481.01,501.77 476.16,506.23 C470.37,511.54 458.62,520.90 450.03,526.84 C439.06,534.11 406.93,553.02 402.93,554.81" fill="none" stroke="rgb(1, 0, 0)" stroke-width="10.00" stroke-opacity="1.00" stroke-linejoin="round"/>
<path d="M387.61,4.55 Q255.37,35.95 277.96,159.92 Q300.55,283.89 420.11,275.90 Q539.67,267.91 541.05,162.40 Q542.43,56.89 463.64,28.24" fill="none" stroke="rgb(1, 0, 0)" stroke-width="10.00" stroke-opacity="1.00" stroke-linejoin="round"/>
<path d="M144.08,209.51 Q111.02,207.30 91.46,188.29 Q71.90,169.29 163.36,79.20 Q254.82,-10.88 388.16,4.55" fill="none" stroke="rgb(1, 0, 0)" stroke-width="10.00" stroke-opacity="1.00" stroke-linejoin="round"/>
<path d="M227.00,200.97 Q279.07,181.96 277.00,160.47" fill="none" stroke="rgb(1, 0, 0)" stroke-width="10.00" stroke-opacity="1.00" stroke-linejoin="round"/>
<path d="M283.97,187.91 Q331.85,248.52 412.15,230.03 Q492.45,211.55 507.61,156.09 Q522.76,100.64 463.97,27.30" fill="none" stroke="rgb(1, 0, 0)" stroke-width="10.00" stroke-opacity="1.00" stroke-linejoin="round"/>
<path d="M410.20,472.87 Q434.44,400.14 483.20,364.33 Q531.96,328.52 521.77,313.91 Q511.57,299.31 527.83,265.43 Q544.08,231.55 530.31,213.91" fill="none" stroke="rgb(1, 0, 0)" stroke-width="10.00" stroke-opacity="1.00" stroke-linejoin="round"/>
<path d="M410.18,472.00 Q492.91,386.55 471.77,441.09 Q450.64,495.64 418.14,526.32 Q385.64,557.00 377.91,635.18" fill="none" stroke="rgb(1, 0, 0)" stroke-width="10.00" stroke-opacity="1.00" stroke-linejoin="round"/>
<path d="M295.21,456.42 Q330.64,390.33 297.30,338.82 Q263.97,287.30 218.48,271.15 Q173.00,255.00 141.33,241.79" fill="none" stroke="rgb(1, 0, 0)" stroke-width="10.00" stroke-opacity="1.00" stroke-linejoin="round"/>
<path d="M142.76,242.45 Q200.94,321.24 250.03,369.73 Q299.12,418.21 295.48,455.18" fill="none" stroke="rgb(1, 0, 0)" stroke-width="10.00" stroke-opacity="1.00" stroke-linejoin="round"/>
<path d="M356.41,517.68 Q351.61,494.93 357.32,479.95 Q363.03,464.97 354.73,474.63 Q346.44,484.29 334.97,515.91" fill="none" stroke="rgb(1, 0, 0)" stroke-width="10.00" stroke-opacity="1.00" stroke-linejoin="round"/>
<path d="M339.24,502.81 Q339.24,502.81 339.24,502.81" fill="none" stroke="rgb(1, 0, 0)" stroke-width="10.00" stroke-opacity="1.00" stroke-linejoin="round"/>
<path d="M196.09,627.91 Q188.82,560.64 183.82,535.18 Q178.82,509.73 177.45,463.36 Q176.48,430.18 165.38,385.86 Q154.27,341.55 127.91,278.82" fill="none" stroke="rgb(1, 0, 0)" stroke-width="10.00" stroke-opacity="1.00" stroke-linejoin="round"/>
<path d="M175.18,442.45 Q147.91,385.18 87.45,324.27 Q27.00,263.36 87.91,175.18" fill="none" stroke="rgb(1, 0, 0)" stroke-width="10.00" stroke-opacity="1.00" stroke-linejoin="round"/>
<path d="M194.73,627.45 Q223.98,606.36 241.88,588.65 Q259.78,570.94 278.82,546.55" fill="none" stroke="rgb(1, 0, 0)" stroke-width="10.00" stroke-opacity="1.00" stroke-linejoin="round"/>
<path d="M271.09,643.36 Q301.02,609.80 313.73,592.02 Q326.45,574.25 335.93,551.20" fill="none" stroke="rgb(1, 0, 0)" stroke-width="10.00" stroke-opacity="1.00" stroke-linejoin="round"/>
<path d="M338.36,637.91 Q354.41,614.73 362.47,595.04 Q370.53,575.35 374.60,556.35" fill="none" stroke="rgb(1, 0, 0)" stroke-width="10.00" stroke-opacity="1.00" stroke-linejoin="round"/>
<path d="M271.55,642.45 Q264.91,621.27 261.40,604.62 Q257.45,585.90 257.45,572.91" fill="none" stroke="rgb(1, 0, 0)" stroke-width="10.00" stroke-opacity="1.00" stroke-linejoin="round"/>
<path d="M337.45,636.09 Q333.24,618.84 330.46,604.69 Q326.94,586.78 325.71,573.85" fill="none" stroke="rgb(1, 0, 0)" stroke-width="10.00" stroke-opacity="1.00" stroke-linejoin="round"/>
<path d="M378.36,633.36 Q367.91,605.64 366.09,587.91" fill="none" stroke="rgb(1, 0, 0)" stroke-width="10.00" stroke-opacity="1.00" stroke-linejoin="round"/>
<path d="M459.78,426.04 Q452.07,410.06 458.68,386.92" fill="none" stroke="rgb(1, 0, 0)" stroke-width="10.00" stroke-opacity="1.00" stroke-linejoin="round"/>
</g>
</svg>
