<?xml version="1.0" encoding="utf-8"?>
<!-- Generator: Adobe Illustrator 15.1.0, SVG Export Plug-In  -->
<!DOCTYPE svg PUBLIC "-//W3C//DTD SVG 1.1//EN" "http://www.w3.org/Graphics/SVG/1.1/DTD/svg11.dtd" [
	<!ENTITY ns_flows "http://ns.adobe.com/Flows/1.0/">
]>
<svg version="1.1" fill="#0a0a0a"
	 xmlns="http://www.w3.org/2000/svg" xmlns:xlink="http://www.w3.org/1999/xlink" xmlns:a="http://ns.adobe.com/AdobeSVGViewerExtensions/3.0/"
	 x="0px" y="0px" width="198px" height="288px" viewBox="0 0 99 144" enable-background="new 0 0 99 144" xml:space="preserve">
<defs>
</defs>
<polygon  fill-rule="evenodd" clip-rule="evenodd" points="35.816,17.905 35.823,56.51 26.876,49.238 26.854,35.811 17.9,35.811 
	17.935,49.238 8.952,56.514 8.952,44.214 8.952,26.858 26.858,26.858 26.858,17.905 8.952,17.905 8.952,8.953 44.764,8.953 
	44.764,0 0.001,0 0.001,44.214 0,44.214 0,67.996 8.952,67.996 22.388,57.169 35.823,67.996 44.764,67.996 44.771,17.905 "/>
<polygon fill-rule="evenodd" clip-rule="evenodd" points="58.372,17.905 58.365,56.509 67.312,49.24 67.334,35.811 76.287,35.811 
	76.253,49.24 85.235,56.515 85.235,44.214 85.235,26.858 67.329,26.858 67.329,17.905 85.235,17.905 85.235,8.953 49.424,8.953 
	49.424,0 94.186,0 94.186,44.214 94.188,44.214 94.188,67.996 85.235,67.996 71.8,57.167 58.365,67.996 49.424,67.996 
	49.418,17.905 "/>
<polygon fill-rule="evenodd" clip-rule="evenodd" points="35.816,122.214 35.823,83.609 26.876,90.878 26.854,104.309 17.9,104.309 
	17.935,90.878 8.952,83.604 8.952,95.906 8.952,113.26 26.858,113.26 26.858,122.214 8.952,122.214 8.952,131.164 44.764,131.164 
	44.764,140.118 0.001,140.118 0.001,95.906 0,95.906 0,72.122 8.952,72.122 22.388,82.951 35.823,72.122 44.764,72.122 
	44.771,122.214 "/>
<polygon fill-rule="evenodd" clip-rule="evenodd" points="58.372,122.214 58.365,83.609 67.312,90.878 67.334,104.309 
	76.287,104.309 76.253,90.878 85.235,83.604 85.235,95.906 85.235,113.26 67.329,113.26 67.329,122.214 85.235,122.214 
	85.235,131.164 49.424,131.164 49.424,140.118 94.186,140.118 94.186,95.906 94.188,95.906 94.188,72.122 85.235,72.122 
	71.8,82.951 58.365,72.122 49.424,72.122 49.418,122.214 "/>
</svg>
